<svg width="600" height="600" viewBox="0 0 600 600" fill="none" xmlns="http://www.w3.org/2000/svg">
<rect width="600" height="600" fill="#FFEAEA"/>
<g filter="url(#filter0_d)">
<path d="M111.369 173.34C110.331 166.788 114.795 160.636 121.353 159.598L425.859 111.369C432.411 110.331 438.563 114.795 439.602 121.353L487.83 425.859C488.868 432.411 484.404 438.563 477.846 439.602L173.34 487.83C166.788 488.868 160.636 484.404 159.598 477.846L111.369 173.34Z" fill="black"/>
</g>
<path d="M111.369 173.34C110.331 166.788 114.795 160.636 121.353 159.598L425.859 111.369C432.411 110.331 438.563 114.795 439.602 121.353L487.83 425.859C488.868 432.411 484.404 438.563 477.846 439.602L173.34 487.83C166.788 488.868 160.636 484.404 159.598 477.846L111.369 173.34Z" fill="#FDFDFD"/>
<path d="M425.859 111.369L121.354 159.598C114.801 160.635 110.331 166.788 111.369 173.34L159.598 477.845C160.635 484.398 166.788 488.868 173.341 487.83L477.846 439.601C484.398 438.564 488.868 432.411 487.83 425.859L439.602 121.353C438.564 114.801 432.411 110.331 425.859 111.369Z" fill="#FDFDFD"/>
<path d="M398.588 182.577L173.966 218.154L176.592 234.735L401.214 199.158L398.588 182.577Z" fill="#3D3936"/>
<path d="M420.089 318.338L195.467 353.914L198.093 370.496L422.715 334.919L420.089 318.338Z" fill="#3D3936"/>
<path d="M427.311 363.935L202.689 399.512L205.315 416.093L429.937 380.517L427.311 363.935Z" fill="#3D3936"/>
<path d="M405.645 227.139L181.023 262.716L183.649 279.297L408.271 243.721L405.645 227.139Z" fill="#3D3936"/>
<path d="M412.867 272.738L188.245 308.314L190.871 324.896L415.493 289.319L412.867 272.738Z" fill="#3D3936"/>
<path d="M358.765 221.816L310.83 229.408L317.395 270.862L365.33 263.27L358.765 221.816Z" fill="#FDFDFD"/>
<path d="M325.294 320.729L231.925 335.518L238.491 376.971L331.859 362.183L325.294 320.729Z" fill="#FDFDFD"/>
<path d="M353.995 235.32L297.835 244.214L300.462 260.796L356.621 251.901L353.995 235.32Z" fill="#3D3936"/>
<path d="M320.506 334.11L240.615 346.764L243.241 363.345L323.132 350.691L320.506 334.11Z" fill="#3D3936"/>
<path d="M283.787 183.364L167.723 201.746C161.171 202.784 156.701 208.937 157.738 215.489L177.849 342.465C178.887 349.017 185.04 353.488 191.592 352.45L307.657 334.067C314.209 333.03 318.679 326.877 317.641 320.324L297.53 193.348C296.493 186.796 290.34 182.326 283.787 183.364Z" fill="#FDFDFD"/>
<path fill-rule="evenodd" clip-rule="evenodd" d="M290.391 263.164C290.391 297.66 262.426 325.625 227.93 325.625C193.433 325.625 165.469 297.66 165.469 263.164C165.469 228.668 193.433 200.703 227.93 200.703C262.426 200.703 290.391 228.668 290.391 263.164ZM227.93 293.594C244.736 293.594 258.359 279.97 258.359 263.164C258.359 246.358 244.736 232.734 227.93 232.734C211.124 232.734 197.5 246.358 197.5 263.164C197.5 279.97 211.124 293.594 227.93 293.594Z" fill="#442EEC"/>
<defs>
<filter id="filter0_d" x="104.813" y="111.219" width="389.574" height="389.574" filterUnits="userSpaceOnUse" color-interpolation-filters="sRGB">
<feFlood flood-opacity="0" result="BackgroundImageFix"/>
<feColorMatrix in="SourceAlpha" type="matrix" values="0 0 0 0 0 0 0 0 0 0 0 0 0 0 0 0 0 0 127 0"/>
<feOffset dy="6.40625"/>
<feGaussianBlur stdDeviation="3.20312"/>
<feColorMatrix type="matrix" values="0 0 0 0 0 0 0 0 0 0 0 0 0 0 0 0 0 0 0.3 0"/>
<feBlend mode="normal" in2="BackgroundImageFix" result="effect1_dropShadow"/>
<feBlend mode="normal" in="SourceGraphic" in2="effect1_dropShadow" result="shape"/>
</filter>
</defs>
</svg>
