<svg width="574" height="422" viewBox="0 0 574 422" fill="none" xmlns="http://www.w3.org/2000/svg">
<path d="M160.158 83.8985C160.158 48.2916 133.835 17.3615 97.607 12.6191C61.3802 7.86789 27.978 30.9689 18.7978 65.3717L0 135.854H26.6977L26.6977 164.907C26.6977 175.182 30.6272 185.433 38.4226 193.253C46.2357 201.059 56.482 204.973 66.7407 204.973H74.8424V242.213H160.174L160.158 83.8985Z" fill="#547EFE"/>
<path d="M88.136 141.778C120.036 141.778 145.897 115.917 145.897 84.0171C145.897 52.1168 120.036 26.2566 88.136 26.2566C56.2358 26.2566 30.3755 52.1168 30.3755 84.0171C30.3755 115.917 56.2358 141.778 88.136 141.778Z" fill="white"/>
<path d="M88.1265 128.07C112.456 128.07 132.179 108.348 132.179 84.0198C132.179 59.6914 112.456 39.9693 88.1265 39.9693C63.7971 39.9693 44.0742 59.6914 44.0742 84.0198C44.0742 108.348 63.7971 128.07 88.1265 128.07Z" fill="#BBCEFF"/>
<path d="M90.6159 51.235H85.6486L84.1982 58.4672H92.0698L90.6159 51.235Z" fill="#061C5F"/>
<path d="M73.902 54.373L69.5935 56.8576L71.9558 63.8632L78.7755 59.9123L73.902 54.373Z" fill="#061C5F"/>
<path d="M60.9874 65.4709L58.5046 69.7724L64.0422 74.6458L67.9859 67.8315L60.9874 65.4709Z" fill="#061C5F"/>
<path d="M55.3516 81.5355L55.3551 86.5064L62.5927 87.9567V80.0817L55.3516 81.5355Z" fill="#061C5F"/>
<path d="M58.5046 98.2565L60.9874 102.56L67.9859 100.201L64.0422 93.3866L58.5046 98.2565Z" fill="#061C5F"/>
<path d="M69.5859 111.17L73.8945 113.65L78.7679 108.114L71.9483 104.167L69.5859 111.17Z" fill="#061C5F"/>
<path d="M85.6517 116.804H90.619L92.0729 109.565H84.2031L85.6517 116.804Z" fill="#061C5F"/>
<path d="M102.379 113.646L106.68 111.167L104.318 104.163L97.5002 108.111L102.379 113.646Z" fill="#061C5F"/>
<path d="M115.291 102.56L117.774 98.2565L112.232 93.3866L108.298 100.201L115.291 102.56Z" fill="#061C5F"/>
<path d="M120.923 86.5034V81.5326L113.688 80.0787V87.9538L120.923 86.5034Z" fill="#061C5F"/>
<path d="M117.774 69.773L115.291 65.4769L108.298 67.8321L112.232 74.6464L117.774 69.773Z" fill="#061C5F"/>
<path d="M106.68 56.8606L102.37 54.3849L97.5002 59.9154L104.318 63.8662L106.68 56.8606Z" fill="#061C5F"/>
<path d="M88.1293 58.1725C73.8596 58.1725 62.2852 69.7327 62.2852 84.0148C62.2852 98.2916 73.8596 109.859 88.1293 109.859C102.411 109.859 113.982 98.2933 113.982 84.0148C113.982 69.7327 102.411 58.1725 88.1293 58.1725ZM88.1293 91.1727C84.1908 91.1727 80.9785 87.9621 80.9785 84.0148C80.9785 80.0728 84.1908 76.8587 88.1293 76.8587C92.0836 76.8587 95.2907 80.0728 95.2907 84.0148C95.2907 87.9603 92.0836 91.1727 88.1293 91.1727Z" fill="#061C5F"/>
<path d="M88.1306 71.6138C81.2791 71.6138 75.731 77.1619 75.731 84.0152C75.731 90.872 81.2809 96.4202 88.1306 96.4202C94.991 96.4202 100.541 90.872 100.541 84.0152C100.541 77.1619 94.991 71.6138 88.1306 71.6138ZM88.1306 90.2186C84.7111 90.2186 81.9379 87.4418 81.9379 84.0152C81.9379 80.5939 84.7111 77.8101 88.1306 77.8101C91.5555 77.8101 94.3375 80.5939 94.3375 84.0152C94.3375 87.4401 91.5555 90.2186 88.1306 90.2186Z" fill="white"/>
<path d="M333.054 421.001C428.023 421.001 505.011 344.017 505.011 249.052C505.011 154.087 428.023 77.1021 333.054 77.1021C238.085 77.1021 161.098 154.087 161.098 249.052C161.098 344.017 238.085 421.001 333.054 421.001Z" fill="#BBCEFF"/>
<path d="M333.052 372.993C401.506 372.993 456.999 317.503 456.999 249.052C456.999 180.6 401.506 125.11 333.052 125.11C264.598 125.11 209.105 180.6 209.105 249.052C209.105 317.503 264.598 372.993 333.052 372.993Z" fill="#88A5FF"/>
<path d="M333.053 323.102C373.952 323.102 407.107 289.948 407.107 249.051C407.107 208.154 373.952 175.001 333.053 175.001C292.155 175.001 259 208.154 259 249.051C259 289.948 292.155 323.102 333.053 323.102Z" fill="#BBCEFF"/>
<path d="M337.235 193.939H328.884L326.446 206.097H339.679L337.235 193.939Z" fill="#061C5F"/>
<path d="M309.139 199.216L301.896 203.392L305.867 215.169L317.331 208.527L309.139 199.216Z" fill="#061C5F"/>
<path d="M287.429 217.871L283.255 225.102L292.564 233.294L299.193 221.839L287.429 217.871Z" fill="#061C5F"/>
<path d="M277.954 244.877L277.96 253.234L290.127 255.672V242.433L277.954 244.877Z" fill="#061C5F"/>
<path d="M283.255 272.985L287.429 280.219L299.193 276.254L292.564 264.799L283.255 272.985Z" fill="#061C5F"/>
<path d="M301.884 294.694L309.127 298.861L317.319 289.555L305.855 282.92L301.884 294.694Z" fill="#061C5F"/>
<path d="M328.89 304.164H337.24L339.684 291.994H326.455L328.89 304.164Z" fill="#061C5F"/>
<path d="M357.007 298.853L364.238 294.686L360.267 282.912L348.806 289.548L357.007 298.853Z" fill="#061C5F"/>
<path d="M378.713 280.219L382.886 272.986L373.572 264.799L366.957 276.254L378.713 280.219Z" fill="#061C5F"/>
<path d="M388.184 253.228V244.872L376.021 242.428V255.666L388.184 253.228Z" fill="#061C5F"/>
<path d="M382.886 225.103L378.713 217.881L366.957 221.84L373.572 233.295L382.886 225.103Z" fill="#061C5F"/>
<path d="M364.238 203.398L356.992 199.236L348.806 208.533L360.267 215.175L364.238 203.398Z" fill="#061C5F"/>
<path d="M333.055 205.602C309.067 205.602 289.61 225.035 289.61 249.043C289.61 273.043 309.067 292.488 333.055 292.488C357.064 292.488 376.515 273.046 376.515 249.043C376.515 225.035 357.064 205.602 333.055 205.602ZM333.055 261.076C326.435 261.076 321.035 255.679 321.035 249.043C321.035 242.417 326.435 237.014 333.055 237.014C339.703 237.014 345.094 242.417 345.094 249.043C345.094 255.676 339.703 261.076 333.055 261.076Z" fill="#061C5F"/>
<path d="M333.056 228.197C321.539 228.197 312.212 237.524 312.212 249.044C312.212 260.571 321.542 269.898 333.056 269.898C344.589 269.898 353.918 260.571 353.918 249.044C353.918 237.524 344.589 228.197 333.056 228.197ZM333.056 259.473C327.308 259.473 322.646 254.805 322.646 249.044C322.646 243.293 327.308 238.613 333.056 238.613C338.814 238.613 343.49 243.293 343.49 249.044C343.49 254.802 338.814 259.473 333.056 259.473Z" fill="white"/>
<mask id="path-35-outside-1" maskUnits="userSpaceOnUse" x="41.0742" y="36.9693" width="370" height="290" fill="black">
<rect fill="white" x="41.0742" y="36.9693" width="370" height="290"/>
<path fill-rule="evenodd" clip-rule="evenodd" d="M111.048 46.3946L366 182.501L365.899 182.665C390.319 194.769 407.107 219.95 407.107 249.051C407.107 289.948 373.952 323.102 333.053 323.102C316.384 323.102 301 317.594 288.624 308.299L288.5 308.501L60.5 118.501L60.5703 118.39C50.5128 110.317 44.0742 97.92 44.0742 84.0198C44.0742 59.6914 63.7971 39.9693 88.1265 39.9693C96.5226 39.9693 104.37 42.3182 111.048 46.3946Z"/>
</mask>
<path d="M366 182.501L368.555 184.072L370.226 181.356L367.413 179.854L366 182.501ZM111.048 46.3946L109.485 48.9552L109.559 49.0003L109.635 49.0411L111.048 46.3946ZM365.899 182.665L363.344 181.093L361.622 183.893L364.567 185.353L365.899 182.665ZM288.624 308.299L290.426 305.9L287.794 303.923L286.069 306.727L288.624 308.299ZM288.5 308.501L286.579 310.805L289.24 313.023L291.055 310.072L288.5 308.501ZM60.5 118.501L57.9676 116.892L56.5542 119.118L58.5794 120.805L60.5 118.501ZM60.5703 118.39L63.1027 119.998L64.5425 117.731L62.4483 116.05L60.5703 118.39ZM367.413 179.854L112.461 43.7481L109.635 49.0411L364.587 185.147L367.413 179.854ZM368.454 184.236L368.555 184.072L363.445 180.929L363.344 181.093L368.454 184.236ZM364.567 185.353C388.005 196.97 404.107 221.133 404.107 249.051H410.107C410.107 218.766 392.633 192.568 367.231 179.977L364.567 185.353ZM404.107 249.051C404.107 288.291 372.295 320.102 333.053 320.102V326.102C375.609 326.102 410.107 291.605 410.107 249.051H404.107ZM333.053 320.102C317.056 320.102 302.3 314.818 290.426 305.9L286.823 310.698C299.7 320.369 315.712 326.102 333.053 326.102V320.102ZM291.055 310.072L291.179 309.871L286.069 306.727L285.945 306.929L291.055 310.072ZM58.5794 120.805L286.579 310.805L290.421 306.196L62.4206 116.196L58.5794 120.805ZM58.0379 116.781L57.9676 116.892L63.0324 120.109L63.1027 119.998L58.0379 116.781ZM62.4483 116.05C53.0695 108.522 47.0742 96.972 47.0742 84.0198H41.0742C41.0742 98.8681 47.956 112.111 58.6924 120.729L62.4483 116.05ZM47.0742 84.0198C47.0742 61.3484 65.4538 42.9693 88.1265 42.9693V36.9693C62.1403 36.9693 41.0742 58.0344 41.0742 84.0198H47.0742ZM88.1265 42.9693C95.9556 42.9693 103.264 45.158 109.485 48.9552L112.611 43.834C105.476 39.4784 97.0897 36.9693 88.1265 36.9693V42.9693Z" fill="#030094" mask="url(#path-35-outside-1)"/>
<path fill-rule="evenodd" clip-rule="evenodd" d="M470.701 209.523L573.689 257.111L551.759 304.571C550.725 303.804 549.849 302.84 549.241 301.696C548.497 300.299 547.308 299.125 545.761 298.41C541.543 296.461 536.45 298.75 535.28 303.514C534.56 306.447 535.751 309.614 538.221 311.352C540.095 312.671 542.266 313.018 544.24 312.577C545.494 312.296 546.788 312.343 548.033 312.635L526.101 360.098L423.114 312.51L445.045 265.047C443.8 264.755 442.507 264.708 441.252 264.989C439.279 265.43 437.108 265.083 435.234 263.764C432.763 262.026 431.572 258.859 432.292 255.926C433.463 251.162 438.555 248.873 442.773 250.822C444.321 251.537 445.51 252.712 446.253 254.109C446.862 255.252 447.738 256.216 448.771 256.983L470.701 209.523ZM481.515 335.649C480.372 336.258 479.407 337.134 478.64 338.168L470.576 334.442C470.869 333.196 470.915 331.903 470.635 330.648C470.193 328.675 470.541 326.504 471.859 324.63C473.598 322.16 476.765 320.968 479.698 321.689C484.461 322.859 486.751 327.951 484.802 332.169C484.086 333.717 482.912 334.906 481.515 335.649Z" fill="#1E48C8"/>
<path d="M481.988 278.437L466.468 271.265L454.543 297.073L470.063 304.245L481.988 278.437Z" fill="white"/>
<path d="M511.388 277.984L495.868 270.813L478.598 308.189L494.118 315.36L511.388 277.984Z" fill="#547EFE"/>
<path d="M540.786 277.529L525.266 270.357L502.65 319.301L518.17 326.473L540.786 277.529Z" fill="#061C5F"/>
<path d="M469.826 264.625L469.797 263.434L537.127 261.813L530.28 253.584L531.196 252.823L539.618 262.944L469.826 264.625Z" fill="white"/>
<rect x="340.075" y="101.631" width="139.604" height="63.5135" transform="rotate(-35 340.075 101.631)" fill="#0933B3"/>
<circle cx="415.803" cy="86.9898" r="25.1539" transform="rotate(-35 415.803 86.9898)" fill="#0933B3"/>
<path d="M428.09 86.1923C426.045 83.2715 422.861 81.7934 418.717 82.7064L412.948 84.0595C410.809 84.5358 409.057 84.2584 408.122 82.9242C407.037 81.3737 408.118 79.5416 410.029 78.2034C412.193 76.6885 414.667 75.9237 417.703 75.7321L418.136 75.4291L414.702 70.5252C412.693 70.8031 410.584 71.4742 408.464 72.7439L406.191 69.4986L402.91 71.7962L405.207 75.0775C401.977 77.9846 400.066 82.0094 403.172 86.4446C405.52 89.798 409.086 90.901 413.338 89.9123L419.133 88.5952C421.004 88.1983 422.422 88.7643 423.204 89.8821C424.29 91.4326 423.814 93.5928 420.749 95.7389C417.684 97.885 414.861 98.3037 411.785 98.3618L411.28 98.7153L414.714 103.619C417.115 103.442 420.065 102.666 423.134 100.679L425.381 103.888L428.662 101.591L426.289 98.2011C429.538 95.0128 431.221 90.6635 428.09 86.1923Z" fill="#0933B3"/>
<path fill-rule="evenodd" clip-rule="evenodd" d="M355.013 91.1712C360.79 99.4215 358.785 110.793 350.535 116.57L340.075 101.631L355.013 91.1712ZM439.493 32.0177C445.27 40.2681 456.641 42.2731 464.892 36.4962L454.432 21.5577L439.493 32.0177ZM480.401 58.6464C472.151 64.4233 470.146 75.7947 475.923 84.045L490.861 73.5849L480.401 58.6464ZM391.443 143.198C385.666 134.948 374.295 132.943 366.045 138.72C366.045 138.72 366.045 138.72 366.045 138.72L376.505 153.658L391.443 143.198Z" fill="#0933B3"/>
<rect x="338.903" y="94.8285" width="139.604" height="63.5135" transform="rotate(-35 338.903 94.8285)" fill="#0933B3"/>
<circle cx="414.631" cy="80.1871" r="25.1539" transform="rotate(-35 414.631 80.1871)" fill="#0933B3"/>
<path d="M426.918 79.3895C424.873 76.4688 421.689 74.9907 417.545 75.9036L411.776 77.2568C409.637 77.7331 407.885 77.4556 406.95 76.1215C405.865 74.571 406.946 72.7389 408.857 71.4007C411.021 69.8858 413.495 69.1209 416.531 68.9294L416.964 68.6264L413.53 63.7224C411.521 64.0004 409.412 64.6715 407.292 65.9411L405.019 62.6959L401.738 64.9935L404.036 68.2748C400.805 71.1818 398.894 75.2066 402 79.6418C404.348 82.9953 407.914 84.0983 412.166 83.1096L417.961 81.7925C419.833 81.3956 421.25 81.9615 422.033 83.0793C423.118 84.6299 422.643 86.79 419.578 88.9361C416.513 91.0823 413.689 91.501 410.613 91.5591L410.108 91.9126L413.542 96.8165C415.944 96.6395 418.893 95.8638 421.962 93.8763L424.209 97.0855L427.49 94.7879L425.117 91.3984C428.366 88.2101 430.049 83.8608 426.918 79.3895Z" fill="#0933B3"/>
<path fill-rule="evenodd" clip-rule="evenodd" d="M353.841 84.3685C359.618 92.6188 357.613 103.99 349.363 109.767L338.903 94.8285L353.841 84.3685ZM438.321 25.215C444.098 33.4653 455.47 35.4704 463.72 29.6935L453.26 14.755L438.321 25.215ZM479.23 51.8437C470.979 57.6206 468.974 68.9919 474.751 77.2422L489.69 66.7822L479.23 51.8437ZM390.271 136.396C384.494 128.145 373.123 126.14 364.873 131.917C364.873 131.917 364.873 131.917 364.873 131.917L375.333 146.856L390.271 136.396Z" fill="#0933B3"/>
<rect x="337.731" y="88.0258" width="139.604" height="63.5135" transform="rotate(-35 337.731 88.0258)" fill="#0933B3"/>
<circle cx="413.459" cy="73.3844" r="25.1539" transform="rotate(-35 413.459 73.3844)" fill="#0933B3"/>
<path d="M425.747 72.5868C423.701 69.666 420.517 68.1879 416.374 69.1009L410.604 70.454C408.465 70.9303 406.713 70.6529 405.779 69.3187C404.693 67.7682 405.775 65.9361 407.686 64.598C409.849 63.0831 412.323 62.3182 415.359 62.1266L415.792 61.8237L412.358 56.9197C410.35 57.1977 408.24 57.8687 406.12 59.1384L403.847 55.8931L400.566 58.1907L402.864 61.4721C399.633 64.3791 397.722 68.4039 400.828 72.8391C403.176 76.1925 406.743 77.2955 410.994 76.3068L416.789 74.9898C418.661 74.5928 420.078 75.1588 420.861 76.2766C421.946 77.8271 421.471 79.9873 418.406 82.1334C415.341 84.2795 412.517 84.6982 409.441 84.7564L408.936 85.1098L412.37 90.0138C414.772 89.8368 417.721 89.061 420.79 87.0736L423.037 90.2828L426.318 87.9852L423.945 84.5957C427.194 81.4073 428.877 77.058 425.747 72.5868Z" fill="#0933B3"/>
<path fill-rule="evenodd" clip-rule="evenodd" d="M352.669 77.5657C358.446 85.816 356.441 97.1874 348.191 102.964L337.731 88.0258L352.669 77.5657ZM437.149 18.4123C442.926 26.6626 454.298 28.6677 462.548 22.8907L452.088 7.95223L437.149 18.4123ZM478.058 45.0409C469.807 50.8179 467.802 62.1892 473.579 70.4395L488.518 59.9795L478.058 45.0409ZM389.099 129.593C383.322 121.343 371.951 119.338 363.701 125.114C363.701 125.114 363.701 125.114 363.701 125.114L374.161 140.053L389.099 129.593Z" fill="#0933B3"/>
<rect x="337.2" y="80.0746" width="139.604" height="63.5135" transform="rotate(-35 337.2 80.0746)" fill="#355FDF"/>
<circle cx="412.928" cy="65.4332" r="25.1539" transform="rotate(-35 412.928 65.4332)" fill="white"/>
<path d="M425.215 64.6356C423.17 61.7149 419.986 60.2368 415.842 61.1497L410.073 62.5029C407.934 62.9792 406.182 62.7017 405.247 61.3676C404.162 59.8171 405.243 57.985 407.154 56.6468C409.318 55.1319 411.792 54.367 414.828 54.1755L415.261 53.8725L411.827 48.9685C409.818 49.2465 407.709 49.9175 405.589 51.1872L403.316 47.942L400.035 50.2396L402.332 53.5209C399.102 56.4279 397.191 60.4527 400.297 64.8879C402.645 68.2413 406.211 69.3443 410.463 68.3557L416.258 67.0386C418.129 66.6416 419.547 67.2076 420.329 68.3254C421.415 69.8759 420.939 72.0361 417.874 74.1822C414.809 76.3284 411.986 76.7471 408.91 76.8052L408.405 77.1587L411.839 82.0626C414.24 81.8856 417.19 81.1098 420.259 79.1224L422.506 82.3316L425.787 80.034L423.414 76.6445C426.663 73.4562 428.346 69.1069 425.215 64.6356Z" fill="#1E48C8"/>
<path fill-rule="evenodd" clip-rule="evenodd" d="M352.138 69.6146C357.915 77.8649 355.91 89.2362 347.66 95.0131L337.2 80.0746L352.138 69.6146ZM436.618 10.4611C442.395 18.7114 453.766 20.7165 462.017 14.9396L451.557 0.00105522L436.618 10.4611ZM477.526 37.0898C469.276 42.8667 467.271 54.238 473.048 62.4883L487.986 52.0283L477.526 37.0898ZM388.568 121.642C382.791 113.391 371.42 111.386 363.17 117.163C363.17 117.163 363.17 117.163 363.17 117.163L373.63 132.102L388.568 121.642Z" fill="#88A5FF"/>
<path d="M147.258 397.51H270.446H273.66V319.225C273.66 317.457 272.232 316.001 270.446 316.001H147.258C145.469 316.001 144.03 317.456 144.03 319.225V397.51H147.258Z" fill="#061C5F"/>
<path d="M265.634 323.756H152.066V389.573H265.634V323.756Z" fill="white"/>
<path d="M265.163 324.244H152.54V331.012H265.163V324.244Z" fill="#BBCEFF"/>
<path d="M222.142 336.491H157.019V372.568H222.142V336.491Z" fill="#061C5F"/>
<path d="M241.069 336.491H226.534V347.379H241.069V336.491Z" fill="#061C5F"/>
<path d="M173.6 377.083H157.312V378.202H173.6V377.083Z" fill="#B3B3B3"/>
<path d="M219.387 380.345H165.226V380.904H219.387V380.345Z" fill="#B3B3B3"/>
<path d="M206.654 383.327H165.226V383.886H206.654V383.327Z" fill="#B3B3B3"/>
<path d="M181.514 386.308H165.226V386.867H181.514V386.308Z" fill="#B3B3B3"/>
<path d="M256.554 336.489H244.027V337.608H256.554V336.489Z" fill="#B3B3B3"/>
<path d="M261.028 339.751H244.027V340.31H261.028V339.751Z" fill="#B3B3B3"/>
<path d="M258.786 342.733H244.027V343.292H258.786V342.733Z" fill="#B3B3B3"/>
<path d="M256.554 345.715H244.027V346.274H256.554V345.715Z" fill="#B3B3B3"/>
<path d="M241.069 351.631H226.534V362.52H241.069V351.631Z" fill="#061C5F"/>
<path d="M256.554 351.631H244.027V352.75H256.554V351.631Z" fill="#B3B3B3"/>
<path d="M261.028 354.893H244.027V355.452H261.028V354.893Z" fill="#B3B3B3"/>
<path d="M258.786 357.876H244.027V358.436H258.786V357.876Z" fill="#B3B3B3"/>
<path d="M256.554 360.858H244.027V361.418H256.554V360.858Z" fill="#B3B3B3"/>
<path d="M241.069 366.773H226.534V377.662H241.069V366.773Z" fill="#061C5F"/>
<path d="M256.554 366.772H244.027V367.891H256.554V366.772Z" fill="#B3B3B3"/>
<path d="M261.028 370.033H244.027V370.592H261.028V370.033Z" fill="#B3B3B3"/>
<path d="M258.786 373.016H244.027V373.574H258.786V373.016Z" fill="#B3B3B3"/>
<path d="M256.554 375.998H244.027V376.556H256.554V375.998Z" fill="#B3B3B3"/>
<path d="M241.069 381.914H226.534V388.803H241.069V381.914Z" fill="#061C5F"/>
<path d="M256.554 381.915H244.027V383.033H256.554V381.915Z" fill="#B3B3B3"/>
<path d="M261.028 385.178H244.027V385.737H261.028V385.178Z" fill="#B3B3B3"/>
<path d="M186.123 360.653C185.393 360.653 184.883 360.063 184.883 359.219V347.665C184.883 346.819 185.394 346.229 186.124 346.229C186.394 346.229 186.673 346.31 186.95 346.47L196.957 352.247C197.456 352.536 197.745 352.97 197.745 353.44C197.745 353.91 197.457 354.346 196.957 354.635L186.951 360.411C186.673 360.571 186.394 360.653 186.123 360.653ZM186.124 347.348C186.007 347.348 186.001 347.612 186.001 347.665V359.219C186.001 359.272 186.007 359.533 186.123 359.533C186.156 359.533 186.247 359.525 186.391 359.441L196.396 353.664C196.57 353.564 196.625 353.47 196.625 353.439C196.625 353.409 196.57 353.314 196.397 353.215L186.391 347.439C186.248 347.356 186.157 347.348 186.124 347.348Z" fill="white"/>
<path d="M232.476 344.332C232.18 344.332 231.965 344.09 231.965 343.757V339.859C231.965 339.398 232.387 339.141 232.799 339.377L236.176 341.325C236.374 341.44 236.485 341.616 236.485 341.808C236.484 342 236.373 342.175 236.176 342.288L232.799 344.239C232.692 344.3 232.583 344.332 232.476 344.332ZM232.52 339.861L232.525 343.744L235.897 341.803L232.52 339.861Z" fill="white"/>
<path d="M232.475 359.645C232.175 359.645 231.965 359.409 231.965 359.071V355.174C231.965 354.713 232.387 354.455 232.799 354.691L236.176 356.64C236.373 356.755 236.485 356.93 236.485 357.121C236.485 357.313 236.373 357.488 236.176 357.602L232.799 359.552C232.691 359.614 232.582 359.645 232.475 359.645ZM232.52 355.175L232.525 359.056L235.897 357.117L232.52 355.175Z" fill="white"/>
<path d="M232.475 374.958C232.175 374.958 231.965 374.721 231.965 374.383V370.486C231.965 370.026 232.389 369.767 232.8 370.004L236.176 371.952C236.373 372.066 236.485 372.241 236.485 372.433C236.485 372.626 236.373 372.801 236.176 372.915L232.799 374.864C232.692 374.925 232.582 374.958 232.475 374.958ZM232.52 370.487L232.525 374.368L235.897 372.429L232.52 370.487Z" fill="white"/>
<path d="M234.427 389.025H231.965V385.585C231.965 385.125 232.387 384.867 232.799 385.104L236.176 387.053C236.372 387.166 236.484 387.341 236.485 387.532C236.485 387.723 236.374 387.899 236.177 388.014L234.427 389.025ZM232.523 388.466H234.279L235.896 387.531L232.519 385.588L232.523 388.466Z" fill="white"/>
<path d="M285.617 396.964H132.082C132.062 397.226 132 397.474 132 397.742V400.079C132 403.938 135.122 404.166 138.997 404.166H278.706C282.553 404.166 285.703 403.939 285.703 400.079V397.742C285.704 397.474 285.642 397.226 285.617 396.964Z" fill="#547EFE"/>
</svg>
