<svg width="600" height="600" viewBox="0 0 600 600" fill="none" xmlns="http://www.w3.org/2000/svg">
<rect width="600" height="600" fill="#F7F7F7"/>
<path d="M188.452 166.452H412" stroke="#33E6A4" stroke-width="92.9032" stroke-linecap="round"/>
<path d="M188.452 433.548H412" stroke="#33E6A4" stroke-width="92.9032" stroke-linecap="round"/>
<path d="M188.047 433.762L410.144 169.355" stroke="#33E6A4" stroke-width="92.9032" stroke-linecap="round"/>
<path d="M412 212.903C437.655 212.903 458.452 192.106 458.452 166.452C458.452 140.797 437.655 120 412 120C386.345 120 365.548 140.797 365.548 166.452C365.548 192.106 386.345 212.903 412 212.903Z" fill="#333434"/>
<path d="M412 480C437.655 480 458.452 459.203 458.452 433.548C458.452 407.894 437.655 387.097 412 387.097C386.345 387.097 365.548 407.894 365.548 433.548C365.548 459.203 386.345 480 412 480Z" fill="#333434"/>
<path d="M188.452 212.903C214.106 212.903 234.903 192.106 234.903 166.452C234.903 140.797 214.106 120 188.452 120C162.797 120 142 140.797 142 166.452C142 192.106 162.797 212.903 188.452 212.903Z" fill="#333434"/>
<path d="M188.452 480C214.106 480 234.903 459.203 234.903 433.548C234.903 407.894 214.106 387.097 188.452 387.097C162.797 387.097 142 407.894 142 433.548C142 459.203 162.797 480 188.452 480Z" fill="#333434"/>
</svg>
