<svg xmlns="http://www.w3.org/2000/svg" width="983" height="883" viewBox="0 0 983 883"><g fill="none" fill-rule="evenodd"><rect width="983" height="883" fill="#FFF"/><g transform="translate(235 181)"><path stroke="#9299A0" stroke-linecap="round" stroke-width="32" d="M16,16 L93,16"/><path stroke="#9299A0" stroke-linecap="round" stroke-width="32" d="M16,108 L93,108"/><path stroke="#9299A0" stroke-linecap="round" stroke-width="32" d="M15.8607502,108.073616 L92.3607502,17"/><circle cx="93" cy="16" r="16" fill="#505254"/><circle cx="93" cy="108" r="16" fill="#505254"/><circle cx="16" cy="16" r="16" fill="#505254"/><circle cx="16" cy="108" r="16" fill="#505254"/></g><g transform="translate(235 512)"><path stroke="#33E6A4" stroke-linecap="round" stroke-width="32" d="M16,16 L93,16"/><path stroke="#33E6A4" stroke-linecap="round" stroke-width="32" d="M16,108 L93,108"/><path stroke="#33E6A4" stroke-linecap="round" stroke-width="32" d="M15.8607502,108.073616 L92.3607502,17"/><circle cx="93" cy="16" r="16" fill="#505254"/><circle cx="93" cy="108" r="16" fill="#505254"/><circle cx="16" cy="16" r="16" fill="#505254"/><circle cx="16" cy="108" r="16" fill="#505254"/></g><path fill="#333" d="M393.480002,573.939997 C393.480002,571.909997 395.090002,570.299996 397.120002,570.299996 C400.760003,570.299996 402.510003,568.899996 402.510003,566.729996 C402.510003,564.629996 401.110003,563.369995 398.100003,563.369995 C396.210002,563.369995 394.390002,564.279995 393.130002,565.679996 C392.080002,566.869996 391.100001,567.429996 389.700001,567.429996 C387.530001,567.429996 385.710001,565.609996 385.710001,563.439995 C385.710001,562.529995 385.920001,561.759995 386.480001,561.059995 C388.720001,558.119994 393.550002,556.159994 398.240003,556.159994 C406.080004,556.159994 411.050005,560.499995 411.050005,566.869996 C411.050005,569.949996 409.160004,572.819997 406.080004,574.009997 C409.790005,575.269997 412.170005,578.279998 412.170005,582.059998 C412.170005,588.079999 407.200004,592.84 398.660003,592.84 C393.690002,592.84 387.880001,591.02 385.150001,587.099999 C384.73,586.469999 384.52,585.699999 384.52,584.929999 C384.52,582.689998 386.340001,580.869998 388.510001,580.869998 C389.980001,580.869998 391.100001,581.569998 392.080002,582.759998 C393.620002,584.579999 395.930002,585.629999 398.240003,585.629999 C401.810003,585.629999 403.630004,584.299999 403.630004,581.919998 C403.630004,579.259998 401.740003,577.579998 397.120002,577.579998 C395.090002,577.579998 393.480002,575.969997 393.480002,573.939997 Z M432.960003,585.419999 C435.620003,585.419999 438.105004,584.509999 439.680004,582.549998 C440.450004,581.569998 441.500004,581.149998 442.760005,581.149998 C444.930005,581.149998 446.680005,582.899999 446.680005,585.069999 C446.680005,586.049999 446.260005,586.959999 445.630005,587.799999 C443.180005,591.02 438.070004,592.84 432.750003,592.84 C422.950001,592.84 417.35,586.119999 417.35,578.209998 L417.35,570.859997 C417.35,562.879995 423.020001,556.159994 432.610003,556.159994 C442.025005,556.159994 447.870005,562.669995 447.870005,570.334996 L447.870005,573.309997 C447.870005,575.689997 446.120005,577.439998 443.740005,577.439998 L425.890002,577.439998 C425.890002,582.479998 428.340002,585.419999 432.960003,585.419999 Z M425.890002,571.139997 L439.330004,571.139997 L439.330004,570.509996 C439.330004,566.099996 436.460004,563.579995 432.610003,563.579995 C428.760002,563.579995 425.890002,566.099996 425.890002,570.509996 L425.890002,571.139997 Z M455.150001,556.999994 L477.830004,556.999994 C479.860005,556.999994 481.540005,558.679995 481.540005,560.709995 C481.540005,562.739995 479.860005,564.419995 477.830004,564.419995 L470.760003,564.419995 L470.760003,588.079999 C470.760003,590.46 468.870003,592.35 466.490003,592.35 C464.110002,592.35 462.220002,590.46 462.220002,588.079999 L462.220002,564.419995 L455.150001,564.419995 C453.12,564.419995 451.44,562.739995 451.44,560.709995 C451.44,558.679995 453.12,556.999994 455.150001,556.999994 Z M486.370001,556.999994 L509.050004,556.999994 C511.080005,556.999994 512.760005,558.679995 512.760005,560.709995 C512.760005,562.739995 511.080005,564.419995 509.050004,564.419995 L501.980003,564.419995 L501.980003,588.079999 C501.980003,590.46 500.090003,592.35 497.710003,592.35 C495.330002,592.35 493.440002,590.46 493.440002,588.079999 L493.440002,564.419995 L486.370001,564.419995 C484.34,564.419995 482.66,562.739995 482.66,560.709995 C482.66,558.679995 484.34,556.999994 486.370001,556.999994 Z M530.890003,563.579995 C528.020002,563.579995 525.780002,564.559996 523.820002,566.239996 C522.910002,567.009996 522.000001,567.359996 521.090001,567.359996 C518.990001,567.359996 517.310001,565.749996 517.310001,563.649995 C517.310001,562.669995 517.590001,561.794995 518.360001,560.989995 C521.370001,557.909994 526.340002,556.159994 531.590003,556.159994 C540.550004,556.159994 545.660005,561.829995 545.660005,569.669996 L545.660005,588.079999 C545.660005,590.46 543.770005,592.35 541.390005,592.35 C539.080004,592.35 537.260004,590.6 537.120004,588.289999 C535.160004,591.16 531.870003,592.84 527.600002,592.84 C520.600001,592.84 515.91,588.569999 515.91,582.759998 L515.91,581.849998 C515.91,576.179997 520.110001,571.069997 531.100003,571.069997 L537.120004,571.069997 L537.120004,570.089996 C537.120004,565.749996 534.810004,563.579995 530.890003,563.579995 Z M529.490003,585.629999 C532.710003,585.629999 535.860004,584.089999 537.120004,581.709998 L537.120004,577.789998 L529.630003,577.789998 C526.550002,577.789998 524.450002,579.189998 524.450002,581.569998 L524.450002,581.989998 C524.450002,584.019999 525.990002,585.629999 529.490003,585.629999 Z M557.980001,556.999994 L577.720005,556.999994 C580.310005,556.999994 582.200005,558.889995 582.200005,561.479995 L582.200005,588.079999 C582.200005,590.46 580.310005,592.35 577.930005,592.35 C575.550004,592.35 573.660004,590.46 573.660004,588.079999 L573.660004,564.419995 L562.040002,564.419995 L562.040002,588.079999 C562.040002,590.46 560.150002,592.35 557.770001,592.35 C555.390001,592.35 553.500001,590.46 553.500001,588.079999 L553.500001,561.479995 C553.500001,558.889995 555.390001,556.999994 557.980001,556.999994 Z M586.82,589.06 C586.82,587.239999 588.15,585.629999 590.250001,585.349999 C592.140001,585.069999 593.050001,583.529999 593.050001,580.939998 L593.050001,561.479995 C593.050001,558.889995 594.940001,556.999994 597.530002,556.999994 L616.710005,556.999994 C619.300005,556.999994 621.190006,558.889995 621.190006,561.479995 L621.190006,588.079999 C621.190006,590.46 619.300005,592.35 616.920005,592.35 C614.540005,592.35 612.650004,590.46 612.650004,588.079999 L612.650004,564.419995 L601.520002,564.419995 L601.520002,581.779998 C601.520002,589.27 597.530002,592.84 590.600001,592.84 C588.5,592.84 586.82,591.16 586.82,589.06 Z M642.820003,563.579995 C639.950002,563.579995 637.710002,564.559996 635.750002,566.239996 C634.840002,567.009996 633.930001,567.359996 633.020001,567.359996 C630.920001,567.359996 629.240001,565.749996 629.240001,563.649995 C629.240001,562.669995 629.520001,561.794995 630.290001,560.989995 C633.300001,557.909994 638.270002,556.159994 643.520003,556.159994 C652.480004,556.159994 657.590005,561.829995 657.590005,569.669996 L657.590005,588.079999 C657.590005,590.46 655.700005,592.35 653.320005,592.35 C651.010004,592.35 649.190004,590.6 649.050004,588.289999 C647.090004,591.16 643.800003,592.84 639.530002,592.84 C632.530001,592.84 627.84,588.569999 627.84,582.759998 L627.84,581.849998 C627.84,576.179997 632.040001,571.069997 643.030003,571.069997 L649.050004,571.069997 L649.050004,570.089996 C649.050004,565.749996 646.740004,563.579995 642.820003,563.579995 Z M641.420003,585.629999 C644.640003,585.629999 647.790004,584.089999 649.050004,581.709998 L649.050004,577.789998 L641.560003,577.789998 C638.480002,577.789998 636.380002,579.189998 636.380002,581.569998 L636.380002,581.989998 C636.380002,584.019999 637.920002,585.629999 641.420003,585.629999 Z M685.310004,588.079999 L685.310004,577.789998 L673.970002,577.789998 L673.970002,588.079999 C673.970002,590.46 672.080002,592.35 669.700001,592.35 C667.320001,592.35 665.430001,590.46 665.430001,588.079999 L665.430001,560.919995 C665.430001,558.539995 667.320001,556.649994 669.700001,556.649994 C672.080002,556.649994 673.970002,558.539995 673.970002,560.919995 L673.970002,570.369996 L685.310004,570.369996 L685.310004,560.919995 C685.310004,558.539995 687.200004,556.649994 689.580005,556.649994 C691.960005,556.649994 693.850005,558.539995 693.850005,560.919995 L693.850005,588.079999 C693.850005,590.46 691.960005,592.35 689.580005,592.35 C687.200004,592.35 685.310004,590.46 685.310004,588.079999 Z"/><path fill="#333" d="M396.000002,253.579999 L410.070005,253.579999 C412.100005,253.579999 413.780005,255.259999 413.780005,257.289999 C413.780005,259.32 412.100005,261 410.070005,261 L387.740001,261 C385.710001,261 384.03,259.32 384.03,257.289999 C384.03,255.889999 384.59,254.664999 385.710001,253.229999 L401.110003,233.419995 L388.510001,233.419995 C386.480001,233.419995 384.8,231.739995 384.8,229.709995 C384.8,227.679995 386.480001,225.999994 388.510001,225.999994 L409.370004,225.999994 C411.400005,225.999994 413.080005,227.679995 413.080005,229.709995 C413.080005,231.144995 412.520005,232.334995 411.400005,233.769996 L396.000002,253.579999 Z M434.430003,254.419999 C437.090003,254.419999 439.575004,253.509999 441.150004,251.549998 C441.920004,250.569998 442.970004,250.149998 444.230005,250.149998 C446.400005,250.149998 448.150005,251.899999 448.150005,254.069999 C448.150005,255.049999 447.730005,255.959999 447.100005,256.799999 C444.650005,260.02 439.540004,261.84 434.220003,261.84 C424.420001,261.84 418.82,255.119999 418.82,247.209998 L418.82,239.859997 C418.82,231.879995 424.490001,225.159994 434.080003,225.159994 C443.495005,225.159994 449.340005,231.669995 449.340005,239.334996 L449.340005,242.309997 C449.340005,244.689997 447.590005,246.439998 445.210005,246.439998 L427.360002,246.439998 C427.360002,251.479998 429.810002,254.419999 434.430003,254.419999 Z M427.360002,240.139997 L440.800004,240.139997 L440.800004,239.509996 C440.800004,235.099996 437.930004,232.579995 434.080003,232.579995 C430.230002,232.579995 427.360002,235.099996 427.360002,239.509996 L427.360002,240.139997 Z M472.510003,261 L470.130003,261 C462.150002,261 458.440001,257.429999 458.440001,249.799998 L458.440001,233.419995 L456.900001,233.419995 C454.87,233.419995 453.19,231.739995 453.19,229.709995 C453.19,227.679995 454.87,225.999994 456.900001,225.999994 L458.440001,225.999994 L458.440001,219.979993 C458.440001,217.599993 460.330001,215.709993 462.710002,215.709993 C465.090002,215.709993 466.980002,217.599993 466.980002,219.979993 L466.980002,225.999994 L471.950003,225.999994 C473.980004,225.999994 475.660004,227.679995 475.660004,229.709995 C475.660004,231.739995 473.980004,233.419995 471.950003,233.419995 L466.980002,233.419995 L466.980002,248.959998 C466.980002,251.969999 468.240003,253.579999 470.970003,253.579999 L472.510003,253.579999 C474.540004,253.579999 476.220004,255.259999 476.220004,257.289999 C476.220004,259.32 474.540004,261 472.510003,261 Z M497.920003,261 L495.540003,261 C487.560002,261 483.850001,257.429999 483.850001,249.799998 L483.850001,233.419995 L482.310001,233.419995 C480.28,233.419995 478.6,231.739995 478.6,229.709995 C478.6,227.679995 480.28,225.999994 482.310001,225.999994 L483.850001,225.999994 L483.850001,219.979993 C483.850001,217.599993 485.740001,215.709993 488.120002,215.709993 C490.500002,215.709993 492.390002,217.599993 492.390002,219.979993 L492.390002,225.999994 L497.360003,225.999994 C499.390004,225.999994 501.070004,227.679995 501.070004,229.709995 C501.070004,231.739995 499.390004,233.419995 497.360003,233.419995 L492.390002,233.419995 L492.390002,248.959998 C492.390002,251.969999 493.650003,253.579999 496.380003,253.579999 L497.920003,253.579999 C499.950004,253.579999 501.630004,255.259999 501.630004,257.289999 C501.630004,259.32 499.950004,261 497.920003,261 Z M520.740003,232.579995 C517.870002,232.579995 515.630002,233.559996 513.670002,235.239996 C512.760002,236.009996 511.850001,236.359996 510.940001,236.359996 C508.840001,236.359996 507.160001,234.749996 507.160001,232.649995 C507.160001,231.669995 507.440001,230.794995 508.210001,229.989995 C511.220001,226.909994 516.190002,225.159994 521.440003,225.159994 C530.400004,225.159994 535.510005,230.829995 535.510005,238.669996 L535.510005,257.079999 C535.510005,259.46 533.620005,261.35 531.240005,261.35 C528.930004,261.35 527.110004,259.6 526.970004,257.289999 C525.010004,260.16 521.720003,261.84 517.450002,261.84 C510.450001,261.84 505.76,257.569999 505.76,251.759998 L505.76,250.849998 C505.76,245.179997 509.960001,240.069997 520.950003,240.069997 L526.970004,240.069997 L526.970004,239.089996 C526.970004,234.749996 524.660004,232.579995 520.740003,232.579995 Z M519.340003,254.629999 C522.560003,254.629999 525.710004,253.089999 526.970004,250.709998 L526.970004,246.789998 L519.480003,246.789998 C516.400002,246.789998 514.300002,248.189998 514.300002,250.569998 L514.300002,250.989998 C514.300002,253.019999 515.840002,254.629999 519.340003,254.629999 Z M564.770004,245.459997 L564.770004,241.539997 C564.770004,235.589996 562.670004,232.579995 558.330003,232.579995 C555.460003,232.579995 553.080002,234.119996 551.890002,236.429996 L551.890002,250.569998 C553.080002,252.879999 555.460003,254.419999 558.330003,254.419999 C562.670004,254.419999 564.770004,251.409998 564.770004,245.459997 Z M551.890002,229.569995 C553.360002,226.909994 556.860003,225.159994 560.710004,225.159994 C568.690005,225.159994 573.310006,231.249995 573.310006,239.649997 L573.310006,247.349998 C573.310006,255.749999 568.690005,261.84 560.710004,261.84 C556.860003,261.84 553.570002,260.16 551.890002,257.639999 L551.890002,272.340002 C551.890002,274.720002 550.000002,276.610003 547.620001,276.610003 C545.240001,276.610003 543.350001,274.720002 543.350001,272.340002 L543.350001,229.919995 C543.350001,227.539995 545.240001,225.649994 547.620001,225.649994 C549.860002,225.649994 551.610002,227.259994 551.890002,229.569995 Z M589.620002,215.079992 L589.620002,249.379998 C589.620002,252.074999 590.600002,253.474999 592.700003,253.859999 C594.520003,254.174999 595.920003,255.784999 595.920003,257.569999 C595.920003,259.67 594.240003,261.35 592.140003,261.35 C584.720001,261.35 581.080001,257.499999 581.080001,250.079998 L581.080001,215.079992 C581.080001,212.699992 582.970001,210.809992 585.350001,210.809992 C587.730002,210.809992 589.620002,212.699992 589.620002,215.079992 Z M614.680003,232.579995 C611.810002,232.579995 609.570002,233.559996 607.610002,235.239996 C606.700002,236.009996 605.790001,236.359996 604.880001,236.359996 C602.780001,236.359996 601.100001,234.749996 601.100001,232.649995 C601.100001,231.669995 601.380001,230.794995 602.150001,229.989995 C605.160001,226.909994 610.130002,225.159994 615.380003,225.159994 C624.340004,225.159994 629.450005,230.829995 629.450005,238.669996 L629.450005,257.079999 C629.450005,259.46 627.560005,261.35 625.180005,261.35 C622.870004,261.35 621.050004,259.6 620.910004,257.289999 C618.950004,260.16 615.660003,261.84 611.390002,261.84 C604.390001,261.84 599.7,257.569999 599.7,251.759998 L599.7,250.849998 C599.7,245.179997 603.900001,240.069997 614.890003,240.069997 L620.910004,240.069997 L620.910004,239.089996 C620.910004,234.749996 618.600004,232.579995 614.680003,232.579995 Z M613.280003,254.629999 C616.500003,254.629999 619.650004,253.089999 620.910004,250.709998 L620.910004,246.789998 L613.420003,246.789998 C610.340002,246.789998 608.240002,248.189998 608.240002,250.569998 L608.240002,250.989998 C608.240002,253.019999 609.780002,254.629999 613.280003,254.629999 Z M645.830002,229.919995 L645.830002,229.989995 C647.580002,227.189994 651.010003,225.159994 655.210004,225.159994 C662.910005,225.159994 667.320006,230.619995 667.320006,239.439996 L667.320006,257.079999 C667.320006,259.46 665.430005,261.35 663.050005,261.35 C660.670004,261.35 658.780004,259.46 658.780004,257.079999 L658.780004,240.699997 C658.780004,235.379996 656.960004,232.579995 652.410003,232.579995 C649.750003,232.579995 647.020002,234.329996 645.830002,237.059996 L645.830002,257.079999 C645.830002,259.46 643.940002,261.35 641.560001,261.35 C639.180001,261.35 637.290001,259.46 637.290001,257.079999 L637.290001,229.919995 C637.290001,227.539995 639.180001,225.649994 641.560001,225.649994 C643.940002,225.649994 645.830002,227.539995 645.830002,229.919995 Z"/></g></svg>