<svg xmlns="http://www.w3.org/2000/svg" width="1371" height="883" viewBox="0 0 1371 883"><g fill="none" fill-rule="evenodd"><rect width="1371" height="883" fill="#FFF"/><g transform="translate(99 102)"><path stroke="#33E6A4" stroke-linecap="round" stroke-width="32" d="M175.364058 115.891068L96 98M15.8616257 116.302118L96 98"/><path stroke="#33E6A4" stroke-linecap="round" stroke-width="32" d="M96,98 L131.534367,171.197678"/><path stroke="#33E6A4" stroke-linecap="round" stroke-width="32" d="M96,21 L96,98"/><path stroke="#33E6A4" stroke-linecap="round" stroke-width="32" d="M96,98 L60.8934326,170.427048"/><path stroke="#33E6A4" stroke-linecap="round" stroke-width="32" d="M32.1899853 47.1290283L96 98M160.019806 47.4518967L96 98"/><circle cx="96" cy="98" r="16" fill="#505254"/><circle cx="32" cy="47" r="16" fill="#505254"/><circle cx="16" cy="116" r="16" fill="#505254"/><circle cx="176" cy="116" r="16" fill="#505254"/><circle cx="160" cy="47" r="16" fill="#505254"/><circle cx="96" cy="16" r="16" fill="#505254"/><circle cx="60" cy="172" r="16" fill="#505254"/><circle cx="132" cy="172" r="16" fill="#505254"/></g><g transform="translate(140 612)"><path stroke="#33E6A4" stroke-linecap="round" stroke-width="32" d="M16,16 L93,16"/><path stroke="#33E6A4" stroke-linecap="round" stroke-width="32" d="M16,108 L93,108"/><path stroke="#33E6A4" stroke-linecap="round" stroke-width="32" d="M15.8607502,108.073616 L92.3607502,17"/><circle cx="93" cy="16" r="16" fill="#505254"/><circle cx="93" cy="108" r="16" fill="#505254"/><circle cx="16" cy="16" r="16" fill="#505254"/><circle cx="16" cy="108" r="16" fill="#505254"/></g><g transform="translate(540 614)"><polyline stroke="#33E6A4" stroke-linecap="round" stroke-linejoin="round" stroke-width="32" points="16 63 59 106 134.348 15.508" opacity=".9"/><circle cx="59" cy="106" r="16" fill="#505254"/><circle cx="134" cy="16" r="16" fill="#505254"/><circle cx="16" cy="63" r="16" fill="#505254"/></g><path fill="#333" d="M701.970002,712.770007 L716.040004,712.770007 C718.070005,712.770007 719.750005,714.450007 719.750005,716.480008 C719.750005,718.510008 718.070005,720.190008 716.040004,720.190008 L693.710001,720.190008 C691.68,720.190008 690,718.510008 690,716.480008 C690,715.080007 690.56,713.855007 691.68,712.420007 L707.080003,692.610004 L694.480001,692.610004 C692.45,692.610004 690.77,690.930003 690.77,688.900003 C690.77,686.870003 692.45,685.190002 694.480001,685.190002 L715.340004,685.190002 C717.370004,685.190002 719.050005,686.870003 719.050005,688.900003 C719.050005,690.335003 718.490005,691.525004 717.370004,692.960004 L701.970002,712.770007 Z M740.400003,713.610007 C743.060003,713.610007 745.545004,712.700007 747.120004,710.740007 C747.890004,709.760007 748.940004,709.340006 750.200004,709.340006 C752.370005,709.340006 754.120005,711.090007 754.120005,713.260007 C754.120005,714.240007 753.700005,715.150007 753.070005,715.990008 C750.620004,719.210008 745.510004,721.030008 740.190003,721.030008 C730.390001,721.030008 724.79,714.310007 724.79,706.400006 L724.79,699.050005 C724.79,691.070003 730.460001,684.350002 740.050003,684.350002 C749.465004,684.350002 755.310005,690.860003 755.310005,698.525005 L755.310005,701.500005 C755.310005,703.880006 753.560005,705.630006 751.180004,705.630006 L733.330002,705.630006 C733.330002,710.670007 735.780002,713.610007 740.400003,713.610007 Z M733.330002,699.330005 L746.770004,699.330005 L746.770004,698.700005 C746.770004,694.290004 743.900003,691.770004 740.050003,691.770004 C736.200002,691.770004 733.330002,694.290004 733.330002,698.700005 L733.330002,699.330005 Z M778.480003,720.190008 L776.100003,720.190008 C768.120001,720.190008 764.410001,716.620008 764.410001,708.990006 L764.410001,692.610004 L762.87,692.610004 C760.84,692.610004 759.16,690.930003 759.16,688.900003 C759.16,686.870003 760.84,685.190002 762.87,685.190002 L764.410001,685.190002 L764.410001,679.170002 C764.410001,676.790001 766.300001,674.900001 768.680001,674.900001 C771.060002,674.900001 772.950002,676.790001 772.950002,679.170002 L772.950002,685.190002 L777.920003,685.190002 C779.950003,685.190002 781.630003,686.870003 781.630003,688.900003 C781.630003,690.930003 779.950003,692.610004 777.920003,692.610004 L772.950002,692.610004 L772.950002,708.150006 C772.950002,711.160007 774.210002,712.770007 776.940003,712.770007 L778.480003,712.770007 C780.510003,712.770007 782.190004,714.450007 782.190004,716.480008 C782.190004,718.510008 780.510003,720.190008 778.480003,720.190008 Z M803.890003,720.190008 L801.510003,720.190008 C793.530001,720.190008 789.820001,716.620008 789.820001,708.990006 L789.820001,692.610004 L788.28,692.610004 C786.25,692.610004 784.57,690.930003 784.57,688.900003 C784.57,686.870003 786.25,685.190002 788.28,685.190002 L789.820001,685.190002 L789.820001,679.170002 C789.820001,676.790001 791.710001,674.900001 794.090001,674.900001 C796.470002,674.900001 798.360002,676.790001 798.360002,679.170002 L798.360002,685.190002 L803.330003,685.190002 C805.360003,685.190002 807.040003,686.870003 807.040003,688.900003 C807.040003,690.930003 805.360003,692.610004 803.330003,692.610004 L798.360002,692.610004 L798.360002,708.150006 C798.360002,711.160007 799.620002,712.770007 802.350003,712.770007 L803.890003,712.770007 C805.920003,712.770007 807.600004,714.450007 807.600004,716.480008 C807.600004,718.510008 805.920003,720.190008 803.890003,720.190008 Z M826.710003,691.770004 C823.840002,691.770004 821.600002,692.750004 819.640001,694.430004 C818.730001,695.200004 817.820001,695.550004 816.910001,695.550004 C814.810001,695.550004 813.13,693.940004 813.13,691.840004 C813.13,690.860003 813.41,689.985003 814.18,689.180003 C817.190001,686.100003 822.160002,684.350002 827.410003,684.350002 C836.370004,684.350002 841.480005,690.020003 841.480005,697.860005 L841.480005,716.270008 C841.480005,718.650008 839.590005,720.540008 837.210004,720.540008 C834.900004,720.540008 833.080004,718.790008 832.940004,716.480008 C830.980003,719.350008 827.690003,721.030008 823.420002,721.030008 C816.420001,721.030008 811.73,716.760008 811.73,710.950007 L811.73,710.040007 C811.73,704.370006 815.930001,699.260005 826.920003,699.260005 L832.940004,699.260005 L832.940004,698.280005 C832.940004,693.940004 830.630003,691.770004 826.710003,691.770004 Z M825.310002,713.820007 C828.530003,713.820007 831.680003,712.280007 832.940004,709.900007 L832.940004,705.980006 L825.450002,705.980006 C822.370002,705.980006 820.270001,707.380006 820.270001,709.760007 L820.270001,710.180007 C820.270001,712.210007 821.810002,713.820007 825.310002,713.820007 Z M870.740004,704.650006 L870.740004,700.730005 C870.740004,694.780004 868.640003,691.770004 864.300003,691.770004 C861.430002,691.770004 859.050002,693.310004 857.860002,695.620004 L857.860002,709.760007 C859.050002,712.070007 861.430002,713.610007 864.300003,713.610007 C868.640003,713.610007 870.740004,710.600007 870.740004,704.650006 Z M857.860002,688.760003 C859.330002,686.100003 862.830003,684.350002 866.680003,684.350002 C874.660004,684.350002 879.280005,690.440003 879.280005,698.840005 L879.280005,706.540006 C879.280005,714.940007 874.660004,721.030008 866.680003,721.030008 C862.830003,721.030008 859.540002,719.350008 857.860002,716.830008 L857.860002,731.53001 C857.860002,733.91001 855.970001,735.800011 853.590001,735.800011 C851.210001,735.800011 849.32,733.91001 849.32,731.53001 L849.32,689.110003 C849.32,686.730003 851.210001,684.840002 853.590001,684.840002 C855.830001,684.840002 857.580002,686.450003 857.860002,688.760003 Z M895.590002,674.270001 L895.590002,708.570006 C895.590002,711.265007 896.570002,712.665007 898.670002,713.050007 C900.490003,713.365007 901.890003,714.975007 901.890003,716.760008 C901.890003,718.860008 900.210003,720.540008 898.110002,720.540008 C890.690001,720.540008 887.05,716.690008 887.05,709.270006 L887.05,674.270001 C887.05,671.89 888.940001,670 891.320001,670 C893.700002,670 895.590002,671.89 895.590002,674.270001 Z M920.650003,691.770004 C917.780002,691.770004 915.540002,692.750004 913.580001,694.430004 C912.670001,695.200004 911.760001,695.550004 910.850001,695.550004 C908.750001,695.550004 907.07,693.940004 907.07,691.840004 C907.07,690.860003 907.35,689.985003 908.12,689.180003 C911.130001,686.100003 916.100002,684.350002 921.350003,684.350002 C930.310004,684.350002 935.420005,690.020003 935.420005,697.860005 L935.420005,716.270008 C935.420005,718.650008 933.530005,720.540008 931.150004,720.540008 C928.840004,720.540008 927.020004,718.790008 926.880004,716.480008 C924.920003,719.350008 921.630003,721.030008 917.360002,721.030008 C910.360001,721.030008 905.67,716.760008 905.67,710.950007 L905.67,710.040007 C905.67,704.370006 909.870001,699.260005 920.860003,699.260005 L926.880004,699.260005 L926.880004,698.280005 C926.880004,693.940004 924.570003,691.770004 920.650003,691.770004 Z M919.250002,713.820007 C922.470003,713.820007 925.620003,712.280007 926.880004,709.900007 L926.880004,705.980006 L919.390002,705.980006 C916.310002,705.980006 914.210001,707.380006 914.210001,709.760007 L914.210001,710.180007 C914.210001,712.210007 915.750002,713.820007 919.250002,713.820007 Z M951.800002,689.110003 L951.800002,689.180003 C953.550002,686.380003 956.980003,684.350002 961.180003,684.350002 C968.880005,684.350002 973.290005,689.810003 973.290005,698.630005 L973.290005,716.270008 C973.290005,718.650008 971.400005,720.540008 969.020005,720.540008 C966.640004,720.540008 964.750004,718.650008 964.750004,716.270008 L964.750004,699.890005 C964.750004,694.570004 962.930004,691.770004 958.380003,691.770004 C955.720002,691.770004 952.990002,693.520004 951.800002,696.250004 L951.800002,716.270008 C951.800002,718.650008 949.910001,720.540008 947.530001,720.540008 C945.150001,720.540008 943.26,718.650008 943.26,716.270008 L943.26,689.110003 C943.26,686.730003 945.150001,684.840002 947.530001,684.840002 C949.910001,684.840002 951.800002,686.730003 951.800002,689.110003 Z"/></g></svg>