<svg xmlns="http://www.w3.org/2000/svg" width="1440" height="1024" viewBox="0 0 1440 1024"><g fill="none" fill-rule="evenodd"><rect width="1440" height="1024" fill="#41494D"/><path fill="#F6F2F1" d="M178.830003,392.469994 L198.720006,392.469994 L198.720006,373.599991 C198.720006,370.539991 201.185006,368.07499 204.245007,368.07499 C207.305007,368.07499 209.770008,370.539991 209.770008,373.599991 L209.770008,422.899999 C209.770008,425.96 207.305007,428.425 204.245007,428.425 C201.185006,428.425 198.720006,425.96 198.720006,422.899999 L198.720006,402.329996 L178.830003,402.329996 L178.830003,422.899999 C178.830003,425.96 176.365002,428.425 173.305002,428.425 C170.245001,428.425 167.780001,425.96 167.780001,422.899999 L167.780001,373.599991 C167.780001,370.539991 170.245001,368.07499 173.305002,368.07499 C176.365002,368.07499 178.830003,370.539991 178.830003,373.599991 L178.830003,392.469994 Z M236.885003,393.489994 C233.400003,393.489994 230.680002,394.679995 228.300002,396.719995 C227.195002,397.654995 226.090002,398.079995 224.985002,398.079995 C222.435001,398.079995 220.395001,396.124995 220.395001,393.574994 C220.395001,392.384994 220.735001,391.322494 221.670001,390.344994 C225.325002,386.604993 231.360003,384.479993 237.735004,384.479993 C248.615005,384.479993 254.820006,391.364994 254.820006,400.884996 L254.820006,423.239999 C254.820006,426.13 252.525006,428.425 249.635006,428.425 C246.830005,428.425 244.620005,426.3 244.450005,423.494999 C242.070004,426.98 238.075004,429.02 232.890003,429.02 C224.390001,429.02 218.695001,423.834999 218.695001,416.779998 L218.695001,415.674998 C218.695001,408.789997 223.795001,402.584996 237.140004,402.584996 L244.450005,402.584996 L244.450005,401.394996 C244.450005,396.124995 241.645004,393.489994 236.885003,393.489994 Z M235.185003,420.264999 C239.095004,420.264999 242.920004,418.394998 244.450005,415.504998 L244.450005,410.744997 L235.355003,410.744997 C231.615003,410.744997 229.065002,412.444997 229.065002,415.334998 L229.065002,415.844998 C229.065002,418.309998 230.935003,420.264999 235.185003,420.264999 Z M287.545005,423.239999 L287.545005,413.039998 C285.250004,414.654998 281.765004,415.589998 278.365003,415.589998 C267.910001,415.589998 263.490001,409.129997 263.490001,398.334995 L263.490001,390.259994 C263.490001,387.369993 265.785001,385.074993 268.675002,385.074993 C271.565002,385.074993 273.860002,387.369993 273.860002,390.259994 L273.860002,396.719995 C273.860002,403.264996 275.050003,406.664997 280.745003,406.664997 C283.380004,406.664997 285.760004,405.814996 287.545005,404.624996 L287.545005,390.259994 C287.545005,387.369993 289.840005,385.074993 292.730005,385.074993 C295.620006,385.074993 297.915006,387.369993 297.915006,390.259994 L297.915006,423.239999 C297.915006,426.13 295.620006,428.425 292.730005,428.425 C289.840005,428.425 287.545005,426.13 287.545005,423.239999 Z M324.180003,393.489994 C320.695003,393.489994 317.975002,394.679995 315.595002,396.719995 C314.490002,397.654995 313.385002,398.079995 312.280002,398.079995 C309.730001,398.079995 307.690001,396.124995 307.690001,393.574994 C307.690001,392.384994 308.030001,391.322494 308.965001,390.344994 C312.620002,386.604993 318.655003,384.479993 325.030004,384.479993 C335.910005,384.479993 342.115006,391.364994 342.115006,400.884996 L342.115006,423.239999 C342.115006,426.13 339.820006,428.425 336.930006,428.425 C334.125005,428.425 331.915005,426.3 331.745005,423.494999 C329.365004,426.98 325.370004,429.02 320.185003,429.02 C311.685001,429.02 305.990001,423.834999 305.990001,416.779998 L305.990001,415.674998 C305.990001,408.789997 311.090001,402.584996 324.435004,402.584996 L331.745005,402.584996 L331.745005,401.394996 C331.745005,396.124995 328.940004,393.489994 324.180003,393.489994 Z M322.480003,420.264999 C326.390004,420.264999 330.215004,418.394998 331.745005,415.504998 L331.745005,410.744997 L322.650003,410.744997 C318.910003,410.744997 316.360002,412.444997 316.360002,415.334998 L316.360002,415.844998 C316.360002,418.309998 318.230003,420.264999 322.480003,420.264999 Z M347.3,424.429999 C347.3,422.219999 348.915,420.264999 351.465001,419.924999 C353.760001,419.584999 354.865001,417.714998 354.865001,414.569998 L354.865001,390.939994 C354.865001,387.794993 357.160002,385.499993 360.305002,385.499993 L383.595006,385.499993 C386.740007,385.499993 389.035007,387.794993 389.035007,390.939994 L389.035007,423.239999 C389.035007,426.13 386.740007,428.425 383.850006,428.425 C380.960006,428.425 378.665005,426.13 378.665005,423.239999 L378.665005,394.509995 L365.150003,394.509995 L365.150003,415.589998 C365.150003,424.684999 360.305002,429.02 351.890001,429.02 C349.34,429.02 347.3,426.98 347.3,424.429999 Z M407.990002,403.009996 L407.990002,410.489997 C407.990002,417.374998 411.730003,420.009999 416.150004,420.009999 C420.570004,420.009999 424.310005,417.374998 424.310005,410.489997 L424.310005,403.009996 C424.310005,396.124995 420.570004,393.489994 416.150004,393.489994 C411.730003,393.489994 407.990002,396.124995 407.990002,403.009996 Z M397.620001,411.594997 L397.620001,401.904996 C397.620001,392.214994 405.015002,384.479993 416.150004,384.479993 C427.285005,384.479993 434.680007,392.214994 434.680007,401.904996 L434.680007,411.594997 C434.680007,421.284999 427.285005,429.02 416.150004,429.02 C405.015002,429.02 397.620001,421.284999 397.620001,411.594997 Z M491.375005,409.129997 L491.375005,404.369996 C491.375005,397.144995 488.825005,393.489994 483.555004,393.489994 C480.070003,393.489994 477.180003,395.359995 475.735003,398.164995 L475.735003,415.334998 C477.180003,418.139998 480.070003,420.009999 483.555004,420.009999 C488.825005,420.009999 491.375005,416.354998 491.375005,409.129997 Z M475.735003,389.834994 C477.520003,386.604993 481.770003,384.479993 486.445004,384.479993 C496.135006,384.479993 501.745007,391.874994 501.745007,402.074996 L501.745007,411.424997 C501.745007,421.624999 496.135006,429.02 486.445004,429.02 C481.770003,429.02 477.775003,426.98 475.735003,423.919999 L475.735003,441.770002 C475.735003,444.660003 473.440002,446.955003 470.550002,446.955003 C467.660001,446.955003 465.365001,444.660003 465.365001,441.770002 L465.365001,390.259994 C465.365001,387.369993 467.660001,385.074993 470.550002,385.074993 C473.270002,385.074993 475.395002,387.029993 475.735003,389.834994 Z M526.735003,393.489994 C523.250003,393.489994 520.530002,394.679995 518.150002,396.719995 C517.045002,397.654995 515.940002,398.079995 514.835002,398.079995 C512.285001,398.079995 510.245001,396.124995 510.245001,393.574994 C510.245001,392.384994 510.585001,391.322494 511.520001,390.344994 C515.175002,386.604993 521.210003,384.479993 527.585004,384.479993 C538.465005,384.479993 544.670006,391.364994 544.670006,400.884996 L544.670006,423.239999 C544.670006,426.13 542.375006,428.425 539.485006,428.425 C536.680005,428.425 534.470005,426.3 534.300005,423.494999 C531.920004,426.98 527.925004,429.02 522.740003,429.02 C514.240001,429.02 508.545001,423.834999 508.545001,416.779998 L508.545001,415.674998 C508.545001,408.789997 513.645001,402.584996 526.990004,402.584996 L534.300005,402.584996 L534.300005,401.394996 C534.300005,396.124995 531.495004,393.489994 526.735003,393.489994 Z M525.035003,420.264999 C528.945004,420.264999 532.770004,418.394998 534.300005,415.504998 L534.300005,410.744997 L525.205003,410.744997 C521.465003,410.744997 518.915002,412.444997 518.915002,415.334998 L518.915002,415.844998 C518.915002,418.309998 520.785003,420.264999 525.035003,420.264999 Z M590.230007,402.159996 L590.230007,411.339997 C590.230007,420.859999 584.365006,429.02 572.040004,429.02 C559.715002,429.02 553.850001,420.859999 553.850001,411.254997 L553.850001,389.324994 C553.850001,376.872492 558.015001,372.367491 569.235003,370.284991 L580.710005,368.15999 C581.135005,368.07499 581.645005,367.98999 582.070005,367.98999 C584.450006,367.98999 586.320006,369.85999 586.320006,372.239991 C586.320006,374.492491 584.790006,375.937491 582.835006,376.319992 L570.850004,378.614992 C566.090003,379.549992 564.220002,381.377492 564.220002,387.114993 L564.220002,389.239994 C566.260003,386.519993 570.255003,384.479993 574.760004,384.479993 C585.045006,384.479993 590.230007,392.639994 590.230007,402.159996 Z M571.785004,393.489994 C568.640003,393.489994 565.835003,395.104995 564.220002,397.994995 L564.220002,409.894997 C564.220002,416.949998 567.365003,420.009999 572.040004,420.009999 C576.715005,420.009999 579.860005,416.949998 579.860005,409.894997 L579.860005,403.774996 C579.860005,397.144995 577.565005,393.489994 571.785004,393.489994 Z M607.910002,403.009996 L607.910002,410.489997 C607.910002,417.374998 611.650003,420.009999 616.070004,420.009999 C620.490004,420.009999 624.230005,417.374998 624.230005,410.489997 L624.230005,403.009996 C624.230005,396.124995 620.490004,393.489994 616.070004,393.489994 C611.650003,393.489994 607.910002,396.124995 607.910002,403.009996 Z M597.540001,411.594997 L597.540001,401.904996 C597.540001,392.214994 604.935002,384.479993 616.070004,384.479993 C627.205005,384.479993 634.600007,392.214994 634.600007,401.904996 L634.600007,411.594997 C634.600007,421.284999 627.205005,429.02 616.070004,429.02 C604.935002,429.02 597.540001,421.284999 597.540001,411.594997 Z M643.440001,385.499993 L670.980005,385.499993 C673.445006,385.499993 675.485006,387.539993 675.485006,390.004994 C675.485006,392.469994 673.445006,394.509995 670.980005,394.509995 L662.395004,394.509995 L662.395004,423.239999 C662.395004,426.13 660.100004,428.425 657.210003,428.425 C654.320003,428.425 652.025002,426.13 652.025002,423.239999 L652.025002,394.509995 L643.440001,394.509995 C640.975,394.509995 638.935,392.469994 638.935,390.004994 C638.935,387.539993 640.975,385.499993 643.440001,385.499993 Z M691.465003,390.259994 L691.465003,400.119995 L699.540004,400.119995 C708.550005,400.119995 715.010006,405.219996 715.010006,414.059998 C715.010006,422.899999 708.550005,428 699.540004,428 L686.535002,428 C683.390001,428 681.095001,425.705 681.095001,422.559999 L681.095001,390.259994 C681.095001,387.369993 683.390001,385.074993 686.280002,385.074993 C689.170002,385.074993 691.465003,387.369993 691.465003,390.259994 Z M704.810005,414.059998 C704.810005,410.319997 702.345004,408.959997 698.265004,408.959997 L691.465003,408.959997 L691.465003,419.159999 L698.265004,419.159999 C702.345004,419.159999 704.810005,417.799998 704.810005,414.059998 Z M720.025007,423.239999 L720.025007,390.259994 C720.025007,387.369993 722.320008,385.074993 725.210008,385.074993 C728.100009,385.074993 730.395009,387.369993 730.395009,390.259994 L730.395009,423.239999 C730.395009,426.13 728.100009,428.425 725.210008,428.425 C722.320008,428.425 720.025007,426.13 720.025007,423.239999 Z M186.310004,535.652506 L172.370002,535.652506 C169.225001,535.652506 166.930001,533.357506 166.930001,530.212505 L166.930001,498.5925 C166.930001,495.4475 169.225001,493.152499 172.370002,493.152499 L185.120004,493.152499 C194.555005,493.152499 199.485006,498.0825 199.485006,504.882501 C199.485006,508.962502 197.445006,511.937502 194.385005,513.467502 C198.295006,515.167503 200.675006,518.737503 200.675006,522.987504 C200.675006,530.467505 195.915006,535.652506 186.310004,535.652506 Z M177.045002,509.727502 L184.100004,509.727502 C187.585004,509.727502 189.285004,508.197502 189.285004,505.647501 C189.285004,503.182501 187.585004,501.652501 184.100004,501.652501 L177.045002,501.652501 L177.045002,509.727502 Z M190.560005,522.477504 C190.560005,519.332503 188.435004,517.802503 184.695004,517.802503 L177.045002,517.802503 L177.045002,527.152505 L184.695004,527.152505 C188.435004,527.152505 190.560005,525.622504 190.560005,522.477504 Z M243.515003,504.627501 C243.515003,501.907501 245.725003,499.6975 248.445004,499.6975 C254.820005,499.6975 258.220005,496.9775 258.220005,491.962499 C258.220005,487.797498 255.415005,485.077498 250.570004,485.077498 C245.980003,485.077498 242.962503,487.202498 240.795003,490.687499 C239.732502,492.387499 238.117502,493.492499 235.950002,493.492499 C233.060001,493.492499 230.680001,491.112499 230.680001,488.222498 C230.680001,487.457498 230.850001,486.649998 231.190001,485.927498 C234.080001,479.807497 241.305003,475.132496 250.485004,475.132496 C262.130006,475.132496 269.270007,482.272497 269.270007,491.792499 C269.270007,497.7425 266.635007,502.162501 261.280006,504.542501 C267.485007,507.007501 271.055007,511.937502 271.055007,518.822503 C271.055007,528.767505 264.340006,536.672506 250.740004,536.672506 C241.687503,536.672506 233.867501,532.592506 230.340001,525.452504 C229.957501,524.645004 229.660001,523.625004 229.660001,522.562504 C229.660001,519.502503 232.125001,517.037503 235.015002,517.037503 C237.225002,517.037503 239.095002,518.312503 240.030002,520.182504 C242.155003,524.432504 245.980003,526.727505 250.655004,526.727505 C256.605005,526.727505 260.005006,523.582504 260.005006,518.737503 C260.005006,512.702502 255.585005,509.557502 248.445004,509.557502 C245.725003,509.557502 243.515003,507.347501 243.515003,504.627501 Z M296.470004,527.662505 C299.700004,527.662505 302.717505,526.557505 304.630005,524.177504 C305.565005,522.987504 306.840005,522.477504 308.370006,522.477504 C311.005006,522.477504 313.130006,524.602504 313.130006,527.237505 C313.130006,528.427505 312.620006,529.532505 311.855006,530.552505 C308.880006,534.462506 302.675005,536.672506 296.215004,536.672506 C284.315002,536.672506 277.515001,528.512505 277.515001,518.907503 L277.515001,509.982502 C277.515001,500.2925 284.400002,492.132499 296.045004,492.132499 C307.477506,492.132499 314.575007,500.0375 314.575007,509.345002 L314.575007,512.957502 C314.575007,515.847503 312.450006,517.972503 309.560006,517.972503 L287.885002,517.972503 C287.885002,524.092504 290.860003,527.662505 296.470004,527.662505 Z M287.885002,510.322502 L304.205005,510.322502 L304.205005,509.557502 C304.205005,504.202501 300.720004,501.1425 296.045004,501.1425 C291.370003,501.1425 287.885002,504.202501 287.885002,509.557502 L287.885002,510.322502 Z M323.415001,493.152499 L350.955005,493.152499 C353.420006,493.152499 355.460006,495.192499 355.460006,497.6575 C355.460006,500.1225 353.420006,502.162501 350.955005,502.162501 L342.370004,502.162501 L342.370004,530.892505 C342.370004,533.782506 340.075004,536.077506 337.185003,536.077506 C334.295003,536.077506 332.000002,533.782506 332.000002,530.892505 L332.000002,502.162501 L323.415001,502.162501 C320.95,502.162501 318.91,500.1225 318.91,497.6575 C318.91,495.192499 320.95,493.152499 323.415001,493.152499 Z M361.325001,493.152499 L388.865005,493.152499 C391.330006,493.152499 393.370006,495.192499 393.370006,497.6575 C393.370006,500.1225 391.330006,502.162501 388.865005,502.162501 L380.280004,502.162501 L380.280004,530.892505 C380.280004,533.782506 377.985004,536.077506 375.095003,536.077506 C372.205003,536.077506 369.910002,533.782506 369.910002,530.892505 L369.910002,502.162501 L361.325001,502.162501 C358.86,502.162501 356.82,500.1225 356.82,497.6575 C356.82,495.192499 358.86,493.152499 361.325001,493.152499 Z M415.385003,501.1425 C411.900003,501.1425 409.180002,502.332501 406.800002,504.372501 C405.695002,505.307501 404.590002,505.732501 403.485002,505.732501 C400.935001,505.732501 398.895001,503.777501 398.895001,501.2275 C398.895001,500.0375 399.235001,498.975 400.170001,497.9975 C403.825002,494.257499 409.860003,492.132499 416.235004,492.132499 C427.115005,492.132499 433.320006,499.0175 433.320006,508.537502 L433.320006,530.892505 C433.320006,533.782506 431.025006,536.077506 428.135006,536.077506 C425.330005,536.077506 423.120005,533.952506 422.950005,531.147505 C420.570004,534.632506 416.575004,536.672506 411.390003,536.672506 C402.890001,536.672506 397.195001,531.487505 397.195001,524.432504 L397.195001,523.327504 C397.195001,516.442503 402.295001,510.237502 415.640004,510.237502 L422.950005,510.237502 L422.950005,509.047502 C422.950005,503.777501 420.145004,501.1425 415.385003,501.1425 Z M413.685003,527.917505 C417.595004,527.917505 421.420004,526.047505 422.950005,523.157504 L422.950005,518.397503 L413.855003,518.397503 C410.115003,518.397503 407.565002,520.097504 407.565002,522.987504 L407.565002,523.497504 C407.565002,525.962505 409.435003,527.917505 413.685003,527.917505 Z M448.280002,493.152499 L472.250006,493.152499 C475.395006,493.152499 477.690007,495.4475 477.690007,498.5925 L477.690007,530.892505 C477.690007,533.782506 475.395006,536.077506 472.505006,536.077506 C469.615005,536.077506 467.320005,533.782506 467.320005,530.892505 L467.320005,502.162501 L453.210003,502.162501 L453.210003,530.892505 C453.210003,533.782506 450.915002,536.077506 448.025002,536.077506 C445.135001,536.077506 442.840001,533.782506 442.840001,530.892505 L442.840001,498.5925 C442.840001,495.4475 445.135001,493.152499 448.280002,493.152499 Z M483.3,532.082506 C483.3,529.872505 484.915,527.917505 487.465001,527.577505 C489.760001,527.237505 490.865001,525.367504 490.865001,522.222504 L490.865001,498.5925 C490.865001,495.4475 493.160002,493.152499 496.305002,493.152499 L519.595006,493.152499 C522.740007,493.152499 525.035007,495.4475 525.035007,498.5925 L525.035007,530.892505 C525.035007,533.782506 522.740007,536.077506 519.850006,536.077506 C516.960006,536.077506 514.665005,533.782506 514.665005,530.892505 L514.665005,502.162501 L501.150003,502.162501 L501.150003,523.242504 C501.150003,532.337506 496.305002,536.672506 487.890001,536.672506 C485.34,536.672506 483.3,534.632506 483.3,532.082506 Z M551.300003,501.1425 C547.815003,501.1425 545.095002,502.332501 542.715002,504.372501 C541.610002,505.307501 540.505002,505.732501 539.400002,505.732501 C536.850001,505.732501 534.810001,503.777501 534.810001,501.2275 C534.810001,500.0375 535.150001,498.975 536.085001,497.9975 C539.740002,494.257499 545.775003,492.132499 552.150004,492.132499 C563.030005,492.132499 569.235006,499.0175 569.235006,508.537502 L569.235006,530.892505 C569.235006,533.782506 566.940006,536.077506 564.050006,536.077506 C561.245005,536.077506 559.035005,533.952506 558.865005,531.147505 C556.485004,534.632506 552.490004,536.672506 547.305003,536.672506 C538.805001,536.672506 533.110001,531.487505 533.110001,524.432504 L533.110001,523.327504 C533.110001,516.442503 538.210001,510.237502 551.555004,510.237502 L558.865005,510.237502 L558.865005,509.047502 C558.865005,503.777501 556.060004,501.1425 551.300003,501.1425 Z M549.600003,527.917505 C553.510004,527.917505 557.335004,526.047505 558.865005,523.157504 L558.865005,518.397503 L549.770003,518.397503 C546.030003,518.397503 543.480002,520.097504 543.480002,522.987504 L543.480002,523.497504 C543.480002,525.962505 545.350003,527.917505 549.600003,527.917505 Z M602.895005,530.892505 L602.895005,518.397503 L589.125003,518.397503 L589.125003,530.892505 C589.125003,533.782506 586.830002,536.077506 583.940002,536.077506 C581.050001,536.077506 578.755001,533.782506 578.755001,530.892505 L578.755001,497.9125 C578.755001,495.022499 581.050001,492.727499 583.940002,492.727499 C586.830002,492.727499 589.125003,495.022499 589.125003,497.9125 L589.125003,509.387502 L602.895005,509.387502 L602.895005,497.9125 C602.895005,495.022499 605.190005,492.727499 608.080006,492.727499 C610.970006,492.727499 613.265006,495.022499 613.265006,497.9125 L613.265006,530.892505 C613.265006,533.782506 610.970006,536.077506 608.080006,536.077506 C605.190005,536.077506 602.895005,533.782506 602.895005,530.892505 Z M640.805004,527.662505 C644.035004,527.662505 647.052505,526.557505 648.965005,524.177504 C649.900005,522.987504 651.175005,522.477504 652.705006,522.477504 C655.340006,522.477504 657.465006,524.602504 657.465006,527.237505 C657.465006,528.427505 656.955006,529.532505 656.190006,530.552505 C653.215006,534.462506 647.010005,536.672506 640.550004,536.672506 C628.650002,536.672506 621.850001,528.512505 621.850001,518.907503 L621.850001,509.982502 C621.850001,500.2925 628.735002,492.132499 640.380004,492.132499 C651.812506,492.132499 658.910007,500.0375 658.910007,509.345002 L658.910007,512.957502 C658.910007,515.847503 656.785006,517.972503 653.895006,517.972503 L632.220002,517.972503 C632.220002,524.092504 635.195003,527.662505 640.805004,527.662505 Z M632.220002,510.322502 L648.540005,510.322502 L648.540005,509.557502 C648.540005,504.202501 645.055004,501.1425 640.380004,501.1425 C635.705003,501.1425 632.220002,504.202501 632.220002,509.557502 L632.220002,510.322502 Z"/><path fill="#FFA690" d="M172.368002,643.367999 L178.776003,643.367999 L178.776003,609.887993 L174.024002,611.975994 C173.520002,612.191994 172.944002,612.335994 172.368002,612.335994 C170.208001,612.335994 168.480001,610.607993 168.480001,608.447993 C168.480001,606.863993 169.416001,605.495993 170.712001,604.919992 L179.136003,601.175992 C180.720003,600.455992 182.016003,600.167992 183.456004,600.167992 C185.760004,600.167992 187.560004,601.967992 187.560004,604.271992 L187.560004,643.367999 L193.752005,643.367999 C195.840006,643.367999 197.568006,645.095999 197.568006,647.183999 C197.568006,649.272 195.840006,651 193.752005,651 L172.368002,651 C170.280001,651 168.552001,649.272 168.552001,647.183999 C168.552001,645.095999 170.280001,643.367999 172.368002,643.367999 Z M215.568002,645.959999 L215.568002,646.463999 C215.568002,649.2 213.408002,651.36 210.672002,651.36 C207.936001,651.36 205.776001,649.2 205.776001,646.463999 L205.776001,645.959999 C205.776001,643.223999 207.936001,641.063998 210.672002,641.063998 C213.408002,641.063998 215.568002,643.223999 215.568002,645.959999 Z M215.568002,616.007994 L215.568002,616.511994 C215.568002,619.247995 213.408002,621.407995 210.672002,621.407995 C207.936001,621.407995 205.776001,619.247995 205.776001,616.511994 L205.776001,616.007994 C205.776001,613.271994 207.936001,611.111993 210.672002,611.111993 C213.408002,611.111993 215.568002,613.271994 215.568002,616.007994 Z M231.768002,633.215997 L242.712004,633.215997 L242.712004,614.423994 L231.768002,633.215997 Z M224.568001,630.479997 L239.472003,604.847992 C241.308003,601.679992 243.216004,600.167992 246.456004,600.167992 C249.264005,600.167992 251.496005,602.399992 251.496005,605.207992 L251.496005,633.215997 L253.584005,633.215997 C255.672006,633.215997 257.400006,634.943997 257.400006,637.031998 C257.400006,639.119998 255.672006,640.847998 253.584005,640.847998 L251.496005,640.847998 L251.496005,646.967999 C251.496005,649.416 249.552005,651.36 247.104004,651.36 C244.656004,651.36 242.712004,649.416 242.712004,646.967999 L242.712004,640.847998 L226.872001,640.847998 C224.208001,640.847998 222.336,638.975998 222.336,636.311998 C222.336,634.799997 222.912,633.323997 224.568001,630.479997 Z M294.768006,617.159994 L294.768006,634.439997 C294.768006,645.455999 288.432005,651.864 278.784003,651.864 C269.136002,651.864 262.800001,645.455999 262.800001,634.439997 L262.800001,617.159994 C262.800001,606.143993 269.136002,599.735992 278.784003,599.735992 C288.432005,599.735992 294.768006,606.143993 294.768006,617.159994 Z M285.984004,633.647997 L285.984004,617.951995 C285.984004,609.887993 282.744004,607.511993 278.784003,607.511993 C274.824003,607.511993 271.584002,609.887993 271.584002,617.951995 L271.584002,633.647997 C271.584002,641.711998 274.824003,644.087999 278.784003,644.087999 C282.744004,644.087999 285.984004,641.711998 285.984004,633.647997 Z"/><g transform="translate(1137 381)"><path fill="#33E6A4" fill-rule="nonzero" d="M118.625088 40.980898C129.877841 40.980898 129.877841 0 118.625088 0L20.5708245 0C9.3180714 0 9.3180714 40.980898 20.5708245 40.980898L118.625088 40.980898zM118.625088 158.80098C129.877841 158.80098 129.877841 117.820082 118.625088 117.820082L20.5708245 117.820082C9.3180714 117.820082 9.3180714 158.80098 20.5708245 158.80098L118.625088 158.80098z"/><path fill="#33E6A4" fill-rule="nonzero" d="M133.412371,34.9502111 C140.649951,26.284978 109.447303,-0.0732400449 102.209723,8.59199301 L4.79217518,125.225698 C-2.44540465,133.890931 28.7572437,160.249149 35.9948236,151.583916 L133.412371,34.9502111 Z"/><ellipse cx="118.625" cy="20.49" fill="#FFF" rx="20.375" ry="20.49"/><ellipse cx="118.625" cy="138.311" fill="#FFF" rx="20.375" ry="20.49"/><ellipse cx="20.571" cy="20.49" fill="#FFF" rx="20.375" ry="20.49"/><ellipse cx="20.571" cy="138.311" fill="#FFF" rx="20.375" ry="20.49"/></g></g></svg>